<svg width="176" height="197" viewBox="0 0 176 197" fill="none" xmlns="http://www.w3.org/2000/svg">
<path d="M156.395 114.688C170.845 114.688 180.247 131.133 173.418 144.716C157.347 176.671 125.185 198.048 88.4998 196.532C40.7456 194.56 1.85795 153.027 0.066595 102.087C-1.90332 46.0698 40.0851 4.42809e-06 92.1613 4.42809e-06C127.184 4.42809e-06 157.656 20.8507 173.243 51.5481C180.201 65.2534 171.01 81.92 156.399 81.92C149.439 81.92 142.905 77.9735 139.633 71.4199C129.786 51.6977 109.43 38.7973 86.5933 41.2611C60.752 44.0504 40.2484 66.7525 38.5223 94.3964C36.4372 127.779 61.3031 155.648 92.1613 155.648C112.609 155.648 130.438 143.399 139.512 125.426C142.857 118.804 149.345 114.688 156.395 114.688Z" fill="#1D262D"/>
<path d="M122.881 98.304C122.881 116.402 109.126 131.072 92.1613 131.072C75.1943 131.072 61.4413 116.402 61.4413 98.304C61.4413 80.2058 75.1943 65.536 92.1613 65.536C109.126 65.536 122.881 80.2058 122.881 98.304Z" fill="#1D262D"/>
</svg>
